# xmcd
#
# Track frame offsets: 
#        150
#        9900
#        20065
#        31845
#        42475
#        53495
#        63777
#        77117
#        88607
#        100792
#        111630
#        124195
#        133005
#        145230
#        158380
#        169710
#        179772
#        195822
#
# Disc length: 2747 seconds
#
# Revision: 4
# Processed by: cddbd v1.5.2PL0 Copyright (c) Steve Scherf et al.
# Submitted via: ExactAudioCopy v0.99pb5
#
DISCID=e40ab912
DTITLE=John Lee Hooker - This is Hip [The Best of] Disc 2
DYEAR=1999
DGENRE=Blues
TTITLE0=Boom Boom
TTITLE1=I Wanna Walk
TTITLE2=Solid Sender
TTITLE3=Dusty Road
TTITLE4=No Shoes
TTITLE5=Want Ad Blues
TTITLE6=I'm Going Upstairs
TTITLE7=Hard Headed Woman
TTITLE8=I'm Mad Again
TTITLE9=She's Mine
TTITLE10=Drug Store Woman
TTITLE11=You Know I Love You
TTITLE12=Half A Stranger
TTITLE13=Sadie Mae
TTITLE14=This is Hip
TTITLE15=I'm Leaving
TTITLE16=It Serves Me Right to Suffer
TTITLE17=Big Legs, Tight Skirt
EXTD=
EXTT0=
EXTT1=
EXTT2=
EXTT3=
EXTT4=
EXTT5=
EXTT6=
EXTT7=
EXTT8=
EXTT9=
EXTT10=
EXTT11=
EXTT12=
EXTT13=
EXTT14=
EXTT15=
EXTT16=
EXTT17=
PLAYORDER=
